<svg xmlns="http://www.w3.org/2000/svg" width="72" height="72" viewBox="0 0 72 72"><g transform="translate(-924 -1273)"><circle cx="36" cy="36" r="36" transform="translate(924 1273)" fill="#fff"/><path d="M36.36,4.389H26.406v-1.1A3.3,3.3,0,0,0,23.114,0H14.337a3.3,3.3,0,0,0-3.292,3.292v1.1H1.1A1.1,1.1,0,0,0,0,5.486V29.624a3.3,3.3,0,0,0,3.292,3.292H34.159a3.3,3.3,0,0,0,3.292-3.292V5.5a1.065,1.065,0,0,0-1.09-1.116ZM13.24,3.292a1.1,1.1,0,0,1,1.1-1.1h8.777a1.1,1.1,0,0,1,1.1,1.1v1.1H13.24ZM34.831,6.583,31.424,16.8a1.1,1.1,0,0,1-1.041.75H24.211v-1.1a1.1,1.1,0,0,0-1.1-1.1H14.337a1.1,1.1,0,0,0-1.1,1.1v1.1H7.068a1.1,1.1,0,0,1-1.041-.75L2.62,6.583ZM22.017,17.555v2.194H15.434V17.555ZM35.256,29.624a1.1,1.1,0,0,1-1.1,1.1H3.292a1.1,1.1,0,0,1-1.1-1.1V12.247L3.945,17.5a3.287,3.287,0,0,0,3.122,2.251H13.24v1.1a1.1,1.1,0,0,0,1.1,1.1h8.777a1.1,1.1,0,0,0,1.1-1.1v-1.1h6.172A3.287,3.287,0,0,0,33.506,17.5l1.751-5.252Zm0,0" transform="translate(941 1293)" fill="#333"/></g></svg>