<svg xmlns="http://www.w3.org/2000/svg" width="64" height="64" viewBox="0 0 64 64"><g transform="translate(-663 -1708)"><circle cx="32" cy="32" r="32" transform="translate(663 1708)" fill="#fff"/><g transform="translate(681 1726)"><path d="M24.56,2.2H22.027V.881a.881.881,0,0,0-1.762,0V2.2H7.93V.881a.881.881,0,0,0-1.762,0V2.2H3.634A3.639,3.639,0,0,0,0,5.837V24.56a3.639,3.639,0,0,0,3.634,3.634H24.56a3.639,3.639,0,0,0,3.634-3.634V5.837A3.639,3.639,0,0,0,24.56,2.2ZM3.634,3.965H6.168v.881a.881.881,0,0,0,1.762,0V3.965H20.265v.881a.881.881,0,0,0,1.762,0V3.965H24.56a1.874,1.874,0,0,1,1.872,1.872V7.93H1.762V5.837A1.874,1.874,0,0,1,3.634,3.965ZM24.56,26.432H3.634A1.874,1.874,0,0,1,1.762,24.56V9.692h24.67V24.56A1.874,1.874,0,0,1,24.56,26.432Z" fill="#333"/></g></g></svg>