<svg xmlns="http://www.w3.org/2000/svg" width="63" height="63" viewBox="0 0 63 63"><g transform="translate(-1230 -3383)"><circle cx="31.5" cy="31.5" r="31.5" transform="translate(1230 3383)" fill="#fff"/><g transform="translate(1241 3403.902)"><g transform="translate(30.763 2.564)"><path d="M21.418,14.836a3.418,3.418,0,1,1,3.418-3.418A3.428,3.428,0,0,1,21.418,14.836Zm0-5.127a1.615,1.615,0,0,0-1.709,1.709,1.709,1.709,0,0,0,3.418,0A1.615,1.615,0,0,0,21.418,9.709Z" transform="translate(-18 -8)" fill="#86c43f"/></g><g transform="translate(30.763 11.109)"><path d="M27.4,19.836a.807.807,0,0,1-.855-.855V17.273a2.628,2.628,0,0,0-2.564-2.564H18.855a.855.855,0,1,1,0-1.709h5.127a4.231,4.231,0,0,1,4.273,4.273v1.709A.807.807,0,0,1,27.4,19.836Z" transform="translate(-18 -13)" fill="#86c43f"/></g><g transform="translate(3.418 2.564)"><path d="M5.418,14.836a3.418,3.418,0,1,1,3.418-3.418A3.428,3.428,0,0,1,5.418,14.836Zm0-5.127a1.615,1.615,0,0,0-1.709,1.709,1.615,1.615,0,0,0,1.709,1.709,1.615,1.615,0,0,0,1.709-1.709A1.615,1.615,0,0,0,5.418,9.709Z" transform="translate(-2 -8)" fill="#86c43f"/></g><g transform="translate(0 11.109)"><path d="M.855,19.836A.807.807,0,0,1,0,18.982V17.273A4.231,4.231,0,0,1,4.273,13H9.4a.855.855,0,1,1,0,1.709H4.273a2.628,2.628,0,0,0-2.564,2.564v1.709A.807.807,0,0,1,.855,19.836Z" transform="translate(0 -13)" fill="#86c43f"/></g><g transform="translate(15.382)"><path d="M14.127,16.754A5.036,5.036,0,0,1,9,11.627,5.036,5.036,0,0,1,14.127,6.5a5.036,5.036,0,0,1,5.127,5.127A5.036,5.036,0,0,1,14.127,16.754Zm0-8.545a3.418,3.418,0,1,0,3.418,3.418A3.428,3.428,0,0,0,14.127,8.209Z" transform="translate(-9 -6.5)" fill="#86c43f"/></g><g transform="translate(11.109 12.818)"><path d="M24.445,22.545a.807.807,0,0,1-.855-.855V18.273a2.628,2.628,0,0,0-2.564-2.564H10.773a2.628,2.628,0,0,0-2.564,2.564v3.418a.807.807,0,0,1-.855.855.807.807,0,0,1-.855-.855V18.273A4.231,4.231,0,0,1,10.773,14H21.027A4.231,4.231,0,0,1,25.3,18.273v3.418A.807.807,0,0,1,24.445,22.545Z" transform="translate(-6.5 -14)" fill="#86c43f"/></g></g></g></svg>