<svg xmlns="http://www.w3.org/2000/svg" width="72" height="72" viewBox="0 0 72 72"><g transform="translate(-1245 -1272)"><circle cx="36" cy="36" r="36" transform="translate(1245 1272)" fill="#fff"/><g transform="translate(1262 1289)"><path d="M19.25,0A19.25,19.25,0,1,0,38.5,19.25,19.272,19.272,0,0,0,19.25,0Zm0,36.277A17.027,17.027,0,1,1,36.277,19.25,17.046,17.046,0,0,1,19.25,36.277Z" fill="#333"/><path d="M156.757,136.012a1.112,1.112,0,0,0-1.506-.453l-12.512,6.728a1.111,1.111,0,0,0-.453.453l-6.725,12.51a1.111,1.111,0,0,0,1.486,1.515h0l0,0,.013-.007,12.518-6.723a1.112,1.112,0,0,0,.453-.453l6.7-12.479c.015-.025.029-.051.041-.077l.009-.017h0A1.109,1.109,0,0,0,156.757,136.012Zm-17.493,17.045,4.274-7.949,3.675,3.675Zm9.522-5.845-3.675-3.675,7.949-4.274" transform="translate(-126.909 -126.907)" fill="#333"/></g></g></svg>