<svg xmlns="http://www.w3.org/2000/svg" width="63" height="63" viewBox="0 0 63 63"><g transform="translate(-782 -3383)"><circle cx="31.5" cy="31.5" r="31.5" transform="translate(782 3383)" fill="#fff"/><g transform="translate(799 3400.357)"><path d="M19.768,20.079l.05-.1-.853-.427-.05.1a1.066,1.066,0,0,1-1.907,0l-.05-.1-.853.427.05.1a2.019,2.019,0,0,0,3.612,0Z" transform="translate(-8.905 -10.709)" fill="#86c43f"/><path d="M44.915,32.653a1.066,1.066,0,0,1-1.907,0l-.05-.1-.853.427.05.1a2.019,2.019,0,0,0,3.612,0l.05-.1-.853-.427Z" transform="translate(-22.512 -17.512)" fill="#86c43f"/><path d="M12.915,45.653a1.066,1.066,0,0,1-1.907,0l-.05-.1-.853.427.05.1a2.019,2.019,0,0,0,3.612,0l.05-.1-.853-.427Z" transform="translate(-5.765 -24.316)" fill="#86c43f"/><path d="M28.647,21.755V13.393a6.2,6.2,0,0,0-12.393,0v2.164a3.811,3.811,0,0,0-.982-.4l-2.9-.725-.308-1.542a4.3,4.3,0,0,0,2.173-2.836h.111a1.9,1.9,0,0,0,1.548-3.012,9.566,9.566,0,0,0,.835-3.887V1.953A.954.954,0,0,0,15.777,1H7.732A3.871,3.871,0,0,0,3.976,5.811l.293,1.173A1.888,1.888,0,0,0,3.86,8.15a1.909,1.909,0,0,0,1.907,1.907h.111A4.3,4.3,0,0,0,8.05,12.892l-.3,1.482c-.184-.016-.369-.028-.557-.028a6.2,6.2,0,0,0-6.2,6.2,12.659,12.659,0,0,0,1.329,5.631l0,.005A6.444,6.444,0,0,0,1,30.077v.477H30.553v-5.5a3.8,3.8,0,0,0-1.907-3.3Zm.953,3.3v3.473a10.232,10.232,0,0,0-8.138-4.168,3.516,3.516,0,0,0-1.235-2.239l-.49-.409.661-.165.089.089a2.778,2.778,0,0,0,3.928,0l.089-.089,2.931.733A2.856,2.856,0,0,1,29.6,25.055ZM21.5,26.74H19.787l1.43-1.43h.127a9.308,9.308,0,0,1,7.745,4.145l.1.145H23.138a1.887,1.887,0,0,0,.265-.953A1.909,1.909,0,0,0,21.5,26.74Zm-7.15-2.686a2.552,2.552,0,0,1,2.37-2.538l-.589.785a1.751,1.751,0,0,0,.162,2.29l.638.638a.959.959,0,0,1,.279.674v.838H15.974l-.878-.878a2.574,2.574,0,0,1-.749-1.808Zm3.255.5-.638-.638a.8.8,0,0,1-.234-.564.8.8,0,0,1,.16-.48l.938-1.25a2.554,2.554,0,0,1,.871.468l.918.765a2.565,2.565,0,0,1,.917,1.792L18.439,26.74H18.16V25.9a1.918,1.918,0,0,0-.559-1.348Zm4.849-5.917A3.341,3.341,0,0,1,19.113,15.3V13.338a2.086,2.086,0,0,1,.931-1.74,2.109,2.109,0,0,1,.5-.245l.643-.214a3.745,3.745,0,0,0,2.681,1.541l1.061.106a.95.95,0,0,1,.858.949V15.3a3.341,3.341,0,0,1-3.337,3.337Zm0,.953a4.265,4.265,0,0,0,1.1-.15l.285,1.423-.1.1a1.825,1.825,0,0,1-2.581,0l-.1-.1.285-1.423a4.285,4.285,0,0,0,1.1.149Zm0-11.44a5.25,5.25,0,0,1,5.243,5.243v7.971l-.029-.009-2.9-.725-.308-1.542A4.293,4.293,0,0,0,26.74,15.3V13.734a1.9,1.9,0,0,0-1.717-1.9l-1.061-.106a2.794,2.794,0,0,1-2.475-2.245l-.935.187a3.841,3.841,0,0,0,.176.613l-.487.163a3.045,3.045,0,0,0-2.082,2.889V15.3a4.292,4.292,0,0,0,2.284,3.789l-.308,1.542-1.391.348a3.512,3.512,0,0,0-1.537-.423V13.393A5.25,5.25,0,0,1,22.45,8.15Zm-6.2,8.586v3.871a3.5,3.5,0,0,0-2.64,4.664,4.946,4.946,0,0,0-1.165,1.473,6.462,6.462,0,0,0-.387-.565l0,0a12.655,12.655,0,0,0,1.329-5.63,6.148,6.148,0,0,0-.82-3.067l1.461-1.644,1.006.252a2.852,2.852,0,0,1,1.214.652Zm-3.262-1.164-.97,1.092a6.254,6.254,0,0,0-.692-.725,2.773,2.773,0,0,0,.692-.5l.089-.089ZM10.533,7.2H9.58a.954.954,0,0,0-.953-.953H6.72v-.19a.957.957,0,0,1,.819-.943l1.278-.183a2.559,2.559,0,0,0,1.317.363H12.44a.954.954,0,0,1,.953.953H11.487A.954.954,0,0,0,10.533,7.2ZM6.72,7.2H8.627V8.15H6.72Zm4.767,0h1.907V8.15H11.487ZM14.347,9.1V7.2a.953.953,0,1,1,0,1.907ZM7.732,1.953h8.045V3.158a8.6,8.6,0,0,1-.646,3.258,1.892,1.892,0,0,0-.784-.173A1.909,1.909,0,0,0,12.44,4.337H10.134A1.614,1.614,0,0,1,8.6,3.233l-.9.3a2.574,2.574,0,0,0,.26.552L7.4,4.166A1.916,1.916,0,0,0,5.767,6.054v.19a1.891,1.891,0,0,0-.669.127l-.2-.791A2.92,2.92,0,0,1,7.732,1.953ZM4.813,8.15A.954.954,0,0,1,5.767,7.2V9.1A.954.954,0,0,1,4.813,8.15ZM6.72,9.1H8.627A.954.954,0,0,0,9.58,8.15h.953a.954.954,0,0,0,.953.953h1.907a3.337,3.337,0,1,1-6.673,0Zm2.232,4.14a4.15,4.15,0,0,0,2.209,0l.285,1.423-.1.1a1.827,1.827,0,0,1-.932.492,6.146,6.146,0,0,0-1.721-.721Zm-7,7.3a5.243,5.243,0,1,1,10.487,0A11.7,11.7,0,0,1,11.372,25.4a6.347,6.347,0,0,0-.553-.467,6.543,6.543,0,0,0-.6-.4A4.275,4.275,0,0,0,11.487,21.5v-.613a1.9,1.9,0,0,0-1.717-1.9l-1.061-.106a2.794,2.794,0,0,1-2.475-2.245l-.935.187a3.841,3.841,0,0,0,.176.613l-.487.163a3.045,3.045,0,0,0-2.082,2.889V21.5a4.276,4.276,0,0,0,1.264,3.038,6.556,6.556,0,0,0-.6.4,6.275,6.275,0,0,0-.553.468,11.7,11.7,0,0,1-1.068-4.857ZM7.2,24.833A3.341,3.341,0,0,1,3.86,21.5V20.488a2.086,2.086,0,0,1,.931-1.74,2.109,2.109,0,0,1,.5-.245l.643-.214A3.745,3.745,0,0,0,8.615,19.83l1.061.106a.95.95,0,0,1,.858.949V21.5A3.341,3.341,0,0,1,7.2,24.833ZM5,25.175a4.25,4.25,0,0,0,4.391,0,5.411,5.411,0,0,1,.632.371.954.954,0,0,1-1.389.6l-.389-.217L8,26.3a.959.959,0,0,1-1.614,0l-.243-.374-.389.217a.954.954,0,0,1-1.389-.6A5.305,5.305,0,0,1,5,25.175Zm-1.4,1a1.9,1.9,0,0,0,1.69,1.045,1.938,1.938,0,0,0,.557-.082,1.91,1.91,0,0,0,2.7,0,1.938,1.938,0,0,0,.557.082,1.9,1.9,0,0,0,1.69-1.046,5.5,5.5,0,0,1,1.618,3.43H1.974A5.5,5.5,0,0,1,3.6,26.172ZM13.365,29.6a6.421,6.421,0,0,0-.357-1.706,3.978,3.978,0,0,1,1.074-1.759,3.562,3.562,0,0,0,.34.4l1.157,1.158H21.5a.953.953,0,0,1,0,1.907Z" transform="translate(-1 -1)" fill="#86c43f"/></g></g></svg>