<svg xmlns="http://www.w3.org/2000/svg" xmlns:xlink="http://www.w3.org/1999/xlink" width="1116" height="475" viewBox="0 0 1116 475"><defs><clipPath id="a"><rect width="1116" height="475" rx="20" transform="translate(0 -0.321)" fill="#5d2a58"/></clipPath><linearGradient id="b" x1="0.5" x2="0.5" y2="1" gradientUnits="objectBoundingBox"><stop offset="0" stop-color="#8ee828"/><stop offset="1" stop-color="#86c43f" stop-opacity="0"/></linearGradient></defs><g transform="translate(0 0.321)" clip-path="url(#a)"><path d="M249.5,499a251.335,251.335,0,0,1-50.284-5.069A248.117,248.117,0,0,1,110,456.389,250.215,250.215,0,0,1,19.608,346.618a248.3,248.3,0,0,1-14.54-46.833,251.968,251.968,0,0,1,0-100.566A248.214,248.214,0,0,1,42.611,110a250.237,250.237,0,0,1,109.771-90.4A248.154,248.154,0,0,1,199.216,5.069a251.946,251.946,0,0,1,100.567,0A248.114,248.114,0,0,1,389,42.611,250.215,250.215,0,0,1,479.39,152.385a248.405,248.405,0,0,1,14.542,46.835,251.968,251.968,0,0,1,0,100.566A248.238,248.238,0,0,1,456.387,389a250.236,250.236,0,0,1-109.771,90.395,248.208,248.208,0,0,1-46.833,14.538A251.351,251.351,0,0,1,249.5,499Zm0-393.115c-79.191,0-143.615,64.427-143.615,143.618S170.309,393.121,249.5,393.121,393.117,328.694,393.117,249.5,328.692,105.885,249.5,105.885Z" transform="translate(887 -79.321) rotate(90)" fill="url(#b)"/></g></svg>