<svg xmlns="http://www.w3.org/2000/svg" width="19.522" height="19.522" viewBox="0 0 19.522 19.522"><path d="M210.737,208.868A1.868,1.868,0,1,1,208.868,207,1.868,1.868,0,0,1,210.737,208.868Zm0,0" transform="translate(-199.107 -199.107)" fill="#5d2a58"/><path d="M144.449,136.778a1.856,1.856,0,0,0-1.064-1.064,3.1,3.1,0,0,0-1.041-.193c-.591-.027-.768-.033-2.265-.033s-1.674.006-2.265.033a3.1,3.1,0,0,0-1.041.193,1.857,1.857,0,0,0-1.064,1.064,3.1,3.1,0,0,0-.193,1.041c-.027.591-.033.768-.033,2.265s.006,1.674.033,2.265a3.1,3.1,0,0,0,.193,1.041,1.856,1.856,0,0,0,1.064,1.064,3.1,3.1,0,0,0,1.041.193c.591.027.768.033,2.265.033s1.674-.006,2.265-.033a3.1,3.1,0,0,0,1.041-.193,1.856,1.856,0,0,0,1.064-1.064,3.1,3.1,0,0,0,.193-1.041c.027-.591.033-.768.033-2.265s-.006-1.674-.033-2.265A3.1,3.1,0,0,0,144.449,136.778Zm-4.369,6.184a2.878,2.878,0,1,1,2.878-2.878A2.878,2.878,0,0,1,140.08,142.962Zm2.992-5.2a.673.673,0,1,1,.673-.673A.673.673,0,0,1,143.072,137.764Zm0,0" transform="translate(-130.319 -130.323)" fill="#5d2a58"/><path d="M9.761,0a9.761,9.761,0,1,0,9.761,9.761A9.762,9.762,0,0,0,9.761,0Zm5.571,12.072a4.112,4.112,0,0,1-.26,1.361,2.866,2.866,0,0,1-1.639,1.639,4.115,4.115,0,0,1-1.36.26c-.6.027-.789.034-2.311.034s-1.713-.007-2.311-.034a4.115,4.115,0,0,1-1.36-.26A2.866,2.866,0,0,1,4.45,13.432a4.111,4.111,0,0,1-.26-1.36c-.028-.6-.034-.789-.034-2.311s.006-1.713.034-2.311A4.113,4.113,0,0,1,4.45,6.09,2.868,2.868,0,0,1,6.09,4.45,4.116,4.116,0,0,1,7.45,4.19c.6-.027.789-.034,2.311-.034s1.713.007,2.311.034a4.117,4.117,0,0,1,1.361.26A2.867,2.867,0,0,1,15.072,6.09a4.112,4.112,0,0,1,.261,1.361c.027.6.034.789.034,2.311S15.36,11.474,15.332,12.072Zm0,0" fill="#5d2a58"/></svg>