<svg xmlns="http://www.w3.org/2000/svg" width="25.894" height="25.894" viewBox="0 0 25.894 25.894"><path d="M211.956,209.478A2.478,2.478,0,1,1,209.478,207,2.478,2.478,0,0,1,211.956,209.478Zm0,0" transform="translate(-196.531 -196.531)" fill="#fff"/><path d="M147.375,137.2a2.462,2.462,0,0,0-1.411-1.411,4.114,4.114,0,0,0-1.38-.256c-.784-.036-1.019-.043-3-.043s-2.22.007-3,.043a4.117,4.117,0,0,0-1.38.256,2.463,2.463,0,0,0-1.411,1.411,4.115,4.115,0,0,0-.256,1.381c-.036.784-.043,1.019-.043,3s.008,2.22.043,3a4.113,4.113,0,0,0,.256,1.38,2.462,2.462,0,0,0,1.411,1.411,4.108,4.108,0,0,0,1.38.256c.784.036,1.019.043,3,.043s2.221-.007,3-.043a4.108,4.108,0,0,0,1.38-.256,2.462,2.462,0,0,0,1.411-1.411,4.116,4.116,0,0,0,.256-1.38c.036-.784.043-1.019.043-3s-.008-2.22-.043-3A4.109,4.109,0,0,0,147.375,137.2Zm-5.8,8.2a3.818,3.818,0,1,1,3.818-3.818A3.818,3.818,0,0,1,141.58,145.4Zm3.969-6.894a.892.892,0,1,1,.892-.892A.892.892,0,0,1,145.548,138.507Zm0,0" transform="translate(-128.633 -128.636)" fill="#fff"/><path d="M12.947,0A12.947,12.947,0,1,0,25.894,12.947,12.948,12.948,0,0,0,12.947,0Zm7.39,16.012a5.454,5.454,0,0,1-.346,1.8,3.8,3.8,0,0,1-2.174,2.174,5.458,5.458,0,0,1-1.8.346c-.793.036-1.046.045-3.065.045s-2.272-.009-3.065-.045a5.458,5.458,0,0,1-1.8-.346A3.8,3.8,0,0,1,5.9,17.817a5.453,5.453,0,0,1-.346-1.8c-.037-.793-.045-1.046-.045-3.065s.008-2.272.045-3.065a5.455,5.455,0,0,1,.345-1.8A3.8,3.8,0,0,1,8.077,5.9a5.46,5.46,0,0,1,1.8-.346c.793-.036,1.046-.045,3.065-.045s2.272.009,3.065.045a5.461,5.461,0,0,1,1.8.345,3.8,3.8,0,0,1,2.174,2.174,5.454,5.454,0,0,1,.346,1.8c.036.793.045,1.046.045,3.065S20.373,15.219,20.337,16.012Zm0,0" fill="#fff"/></svg>