<svg xmlns="http://www.w3.org/2000/svg" width="64" height="64" viewBox="0 0 64 64"><g transform="translate(-928 -1708)"><circle cx="32" cy="32" r="32" transform="translate(928 1708)" fill="#fff"/><g transform="translate(945.931 1725.001)"><path d="M21.862,3.626A11.53,11.53,0,1,0,7.515,21.676a19.544,19.544,0,0,1,5.025,5.4l.9,1.492a1.282,1.282,0,0,0,2.2,0l.86-1.433a16.3,16.3,0,0,1,4.585-5.126A11.521,11.521,0,0,0,21.863,3.62ZM14.534,17.661a5.126,5.126,0,1,1,5.126-5.126A5.126,5.126,0,0,1,14.534,17.661Z" transform="translate(0 0)" fill="#333"/></g></g></svg>