<svg xmlns="http://www.w3.org/2000/svg" width="25.894" height="25.894" viewBox="0 0 25.894 25.894"><path d="M21.179,13.686A12.947,12.947,0,1,0,34.094,26.633,12.954,12.954,0,0,0,21.179,13.686ZM22.2,30.124c-.959-.064-1.343-.571-2.11-1.015-.384,2.158-.9,4.188-2.366,5.267-.448-3.237.639-5.648,1.151-8.25-.9-1.46.128-4.506,1.982-3.744,2.3.889-1.982,5.585.9,6.156,3.069.635,4.284-5.267,2.43-7.172-2.749-2.729-7.928-.064-7.289,3.871.192.952,1.151,1.269.448,2.6-1.79-.381-2.3-1.777-2.238-3.554a5.917,5.917,0,0,1,5.307-5.395c3.261-.381,6.33,1.206,6.713,4.252.512,3.491-1.471,7.235-4.923,6.981Z" transform="translate(-8.2 -13.686)" fill="#fff" fill-rule="evenodd"/></svg>