<svg xmlns="http://www.w3.org/2000/svg" width="19.522" height="19.522" viewBox="0 0 19.522 19.522"><path d="M17.985,13.686a9.761,9.761,0,1,0,9.737,9.761,9.766,9.766,0,0,0-9.737-9.761Zm.771,12.393c-.723-.048-1.012-.431-1.591-.766-.289,1.627-.675,3.158-1.783,3.971-.337-2.44.482-4.258.868-6.22-.675-1.1.1-3.4,1.494-2.823,1.735.67-1.494,4.211.675,4.641,2.314.478,3.23-3.971,1.832-5.407-2.073-2.058-5.977-.048-5.5,2.919.145.718.868.957.337,1.962-1.35-.287-1.735-1.34-1.687-2.68a4.461,4.461,0,0,1,4-4.067c2.458-.287,4.772.909,5.061,3.206.386,2.632-1.109,5.455-3.712,5.263Z" transform="translate(-8.2 -13.686)" fill="#5d2a58" fill-rule="evenodd"/></svg>