<svg xmlns="http://www.w3.org/2000/svg" xmlns:xlink="http://www.w3.org/1999/xlink" width="1250" height="532" viewBox="0 0 1250 532"><defs><clipPath id="a"><rect width="1250" height="532" rx="20" transform="translate(0 0.481)" fill="#5d2a58"/></clipPath><linearGradient id="b" x1="0.5" x2="0.5" y2="1" gradientUnits="objectBoundingBox"><stop offset="0" stop-color="#7d3a76"/><stop offset="1" stop-color="#5d2a58" stop-opacity="0"/></linearGradient></defs><g transform="translate(1250 532.481) rotate(180)" clip-path="url(#a)"><path d="M279.5,559a281.562,281.562,0,0,1-56.33-5.678,277.969,277.969,0,0,1-99.939-42.056A280.314,280.314,0,0,1,21.967,388.3,278.2,278.2,0,0,1,5.678,335.831a282.26,282.26,0,0,1,0-112.658A278.055,278.055,0,0,1,47.736,123.23,280.318,280.318,0,0,1,170.707,21.965,277.994,277.994,0,0,1,223.17,5.678a282.247,282.247,0,0,1,112.66,0,277.964,277.964,0,0,1,99.941,42.056A280.324,280.324,0,0,1,537.033,170.708a278.206,278.206,0,0,1,16.289,52.466,282.26,282.26,0,0,1,0,112.658,278.046,278.046,0,0,1-42.059,99.941A280.3,280.3,0,0,1,388.295,537.036a278.082,278.082,0,0,1-52.465,16.286A281.591,281.591,0,0,1,279.5,559Zm0-440.384c-88.711,0-160.883,72.174-160.883,160.887S190.789,440.39,279.5,440.39,440.387,368.217,440.387,279.5,368.215,118.616,279.5,118.616Z" transform="translate(993 -87.519) rotate(90)" fill="url(#b)"/></g></svg>