<svg xmlns="http://www.w3.org/2000/svg" xmlns:xlink="http://www.w3.org/1999/xlink" width="1250" height="532" viewBox="0 0 1250 532"><defs><clipPath id="a"><rect width="1250" height="532" rx="20" transform="translate(335 894)" fill="#5d2a58"/></clipPath><linearGradient id="b" x1="0.5" x2="0.5" y2="1" gradientUnits="objectBoundingBox"><stop offset="0" stop-color="#7d3a76"/><stop offset="1" stop-color="#5d2a58" stop-opacity="0"/></linearGradient></defs><g transform="translate(-335 -894)" clip-path="url(#a)"><path d="M21508.5-1686a281.562,281.562,0,0,1-56.33-5.678,278.072,278.072,0,0,1-52.465-16.286,279.5,279.5,0,0,1-47.477-25.77,281.5,281.5,0,0,1-41.365-34.129,281.326,281.326,0,0,1-34.129-41.365,279.157,279.157,0,0,1-25.77-47.476,278.2,278.2,0,0,1-16.289-52.464A281.687,281.687,0,0,1,21229-1965.5a281.707,281.707,0,0,1,5.678-56.33,278.2,278.2,0,0,1,16.289-52.466,279.159,279.159,0,0,1,25.77-47.478,281.346,281.346,0,0,1,34.129-41.366,281.388,281.388,0,0,1,41.365-34.129,279.543,279.543,0,0,1,47.477-25.77,277.994,277.994,0,0,1,52.465-16.286,281.562,281.562,0,0,1,56.33-5.678,281.591,281.591,0,0,1,56.33,5.678,278.048,278.048,0,0,1,52.465,16.286,279.469,279.469,0,0,1,47.477,25.77,281.419,281.419,0,0,1,41.365,34.129,281.346,281.346,0,0,1,34.129,41.366,279.2,279.2,0,0,1,25.77,47.478,278.207,278.207,0,0,1,16.289,52.466,281.707,281.707,0,0,1,5.678,56.33,281.687,281.687,0,0,1-5.678,56.328,278.212,278.212,0,0,1-16.289,52.464,279.176,279.176,0,0,1-25.77,47.476,281.326,281.326,0,0,1-34.129,41.365,281.5,281.5,0,0,1-41.365,34.129,279.478,279.478,0,0,1-47.477,25.77,278.082,278.082,0,0,1-52.465,16.286A281.591,281.591,0,0,1,21508.5-1686Zm0-440.382c-88.713,0-160.885,72.173-160.885,160.886s72.172,160.886,160.885,160.886,160.887-72.173,160.887-160.886S21597.215-2126.384,21508.5-2126.384Z" transform="translate(-917.002 -20423.002) rotate(90)" fill="url(#b)"/></g></svg>