<svg xmlns="http://www.w3.org/2000/svg" width="66" height="46.148" viewBox="0 0 66 46.148"><g transform="translate(0 -77)" opacity="0.05"><g transform="translate(0 77)"><g transform="translate(0 0)"><path d="M15.469,77a15.468,15.468,0,0,0-.677,30.922c.019.245.032.584.032,1.047,0,1.9-1.442,7.691-2.351,10.9l-.93,3.281h11.29l.756-1.219c.3-.483,7.349-12.04,7.349-29.461A15.486,15.486,0,0,0,15.469,77Zm4.407,40.992H18.312a48.763,48.763,0,0,0,1.668-9.023,8.368,8.368,0,0,0-.713-4.039,4.128,4.128,0,0,0-3.891-2.149l-.113,0a10.312,10.312,0,1,1,10.517-10.31A57.306,57.306,0,0,1,19.876,117.992Z" transform="translate(0 -77)"/></g></g><g transform="translate(35.063 77)"><g transform="translate(0 0)"><path d="M287.469,77a15.468,15.468,0,0,0-.677,30.922c.019.245.032.584.032,1.047,0,1.9-1.442,7.691-2.351,10.9l-.93,3.281h11.29l.756-1.219c.3-.483,7.349-12.04,7.349-29.461A15.486,15.486,0,0,0,287.469,77Zm4.407,40.992h-1.564a48.765,48.765,0,0,0,1.668-9.023,8.367,8.367,0,0,0-.713-4.039,4.128,4.128,0,0,0-3.891-2.149l-.113,0a10.312,10.312,0,1,1,10.517-10.31A57.305,57.305,0,0,1,291.876,117.992Z" transform="translate(-272 -77)"/></g></g></g></svg>