<svg xmlns="http://www.w3.org/2000/svg" width="64" height="64" viewBox="0 0 64 64"><g transform="translate(-1193 -1708)"><circle cx="32" cy="32" r="32" transform="translate(1193 1708)" fill="#fff"/><g transform="translate(1211 1726)"><path d="M14.1,0a14.1,14.1,0,1,0,14.1,14.1A14.113,14.113,0,0,0,14.1,0Zm0,26.137A12.039,12.039,0,1,1,26.137,14.1,12.053,12.053,0,0,1,14.1,26.137Z" fill="#333"/><g transform="translate(12.382 6.894)"><path d="M231.374,132.4h-4.459v-6.174a1.029,1.029,0,1,0-2.058,0v7.2a1.029,1.029,0,0,0,1.029,1.029h5.488a1.029,1.029,0,1,0,0-2.058Z" transform="translate(-224.857 -125.197)" fill="#333"/></g></g></g></svg>