<svg xmlns="http://www.w3.org/2000/svg" width="63" height="63" viewBox="0 0 63 63"><g transform="translate(-334 -3383)"><circle cx="31.5" cy="31.5" r="31.5" transform="translate(334 3383)" fill="#fff"/><g transform="translate(346 3400.357)"><path d="M.573,73.141l5.771,2.78v4.627a1.013,1.013,0,0,0,.573.913l11.04,5.318a1.014,1.014,0,0,0,.44.1h1.855a1.015,1.015,0,0,0,.44-.1l11.009-5.3a1.014,1.014,0,0,0,.482-.493c.014-.03.027-.061.04-.092a1.013,1.013,0,0,0,.081-.4V75.921l1.574-.758v6.275a1.816,1.816,0,0,0-.73.982l-.9,2.918a1.816,1.816,0,0,0,.009,1.1l.831,2.56a1.828,1.828,0,0,0,1.679,1.26h.056a1.813,1.813,0,0,0,1.7-1.155l.96-2.438a1.832,1.832,0,0,0,.053-1.184l-.9-3.04a1.813,1.813,0,0,0-.736-1v-7.25l2.186-1.053a1.013,1.013,0,0,0,.574-.913v-.807a1.013,1.013,0,0,0-.574-.913L19.765,61.672a1.013,1.013,0,0,0-.879,0L.573,70.493A1.013,1.013,0,0,0,0,71.406v.822A1.013,1.013,0,0,0,.573,73.141ZM34.847,87.833l-.637-1.962.679-2.213.685,2.327Zm-4.567-7.921L20.021,84.853H18.629L8.371,79.912V76.9l10.514,5.065a1.014,1.014,0,0,0,.879,0L30.279,76.9v3.015ZM19.325,63.71l16.831,8.107-5.169,2.49a1.024,1.024,0,0,0-.134.052L19.325,79.912,7.8,74.359a1.021,1.021,0,0,0-.134-.052l-5.169-2.49Z" transform="translate(0 -61.572)" fill="#86c43f"/></g></g></svg>