<svg xmlns="http://www.w3.org/2000/svg" width="72" height="72" viewBox="0 0 72 72"><g transform="translate(-604 -1273)"><circle cx="36" cy="36" r="36" transform="translate(604 1273)" fill="#fff"/><path d="M45.39,78.294l-3.546-3.546V62.584l2.315-.835a1.341,1.341,0,0,0,0-2.523L22.979,51.556a1.341,1.341,0,0,0-.913,0L.884,59.227a1.341,1.341,0,0,0-.009,2.519l7.817,2.9V73.48a1.341,1.341,0,0,0,.241.767,8.176,8.176,0,0,0,3,2.293,23.045,23.045,0,0,0,10.306,2.006,23.447,23.447,0,0,0,10.358-2,8.5,8.5,0,0,0,3.047-2.274,1.341,1.341,0,0,0,.258-.79V64.728l3.264-1.177v11.2l-3.546,3.546a1.341,1.341,0,0,0,0,1.9l3.546,3.546v2.975a1.341,1.341,0,0,0,2.682,0V83.737l3.546-3.546a1.341,1.341,0,0,0,0-1.9ZM22.523,54.243l17.235,6.242L22.241,66.8l-17-6.3Zm10.693,18.7c-4.585,4.126-18.209,3.653-21.84.013V65.635l10.394,3.851a1.332,1.332,0,0,0,.921,0L33.215,65.7v7.251ZM40.5,81.285,38.46,79.243,40.5,77.2l2.042,2.042Z" transform="translate(616 1239.524)" fill="#333"/></g></svg>